<?xml version="1.0" encoding="UTF-8" standalone="no" ?>
<!DOCTYPE svg PUBLIC "-//W3C//DTD SVG 1.1//EN" "http://www.w3.org/Graphics/SVG/1.1/DTD/svg11.dtd">
<svg xmlns="http://www.w3.org/2000/svg" xmlns:xlink="http://www.w3.org/1999/xlink" version="1.1" width="512" height="512" viewBox="0 0 500 500" xml:space="preserve">
<desc>Created with Fabric.js 4.6.0</desc>
<defs>
</defs>
<g transform="matrix(2.06 0 0 2.06 250 216.92)" id="TKnIrDk2T1YrH56zDQBSS"  >
<path style="stroke: none; stroke-width: 1; stroke-dasharray: none; stroke-linecap: butt; stroke-dashoffset: 0; stroke-linejoin: miter; stroke-miterlimit: 4; fill: rgb(1,2,3); fill-rule: nonzero; opacity: 1;" vector-effect="non-scaling-stroke"  transform=" translate(-76.77, -109.02)" d="M 21.020243 159.45015 C 20.998819 156.836227 21.167337 154.679779 21.168236 152.52327 C 21.184181 114.225357 21.172266 75.927452 21.183399 37.629543 C 21.187841 22.344463 29.337761 14.207031 44.596546 14.205041 C 66.409706 14.202197 88.222878 14.193105 110.036026 14.209337 C 123.882927 14.219642 132.4104 22.686283 132.437531 36.619473 C 132.496201 66.758087 132.466766 96.896873 132.49469 127.501114 C 132.49202 137.127945 132.611526 146.293945 132.313248 155.446304 C 132.258835 157.115906 130.881134 159.65416 129.472702 160.234589 C 94.085976 174.817825 58.613735 189.193604 23.149702 203.58902 C 22.727219 203.760529 22.215124 203.711258 21.13217 203.835114 C 21.13217 189.07074 21.13217 174.489166 21.020243 159.45015 M 125.644264 86.12606 C 125.644005 69.795792 125.678108 53.46542 125.631195 37.135284 C 125.600845 26.570278 120.112015 21.054979 109.637413 21.039843 C 87.808136 21.008297 65.978745 21.008318 44.149467 21.040155 C 33.416405 21.055809 27.973969 26.597694 27.966312 37.463528 C 27.948708 62.458927 27.95681 87.454346 27.970232 112.449745 C 27.970982 113.846077 28.114212 115.242325 28.243189 117.583847 C 38.434792 107.639259 47.929462 98.353905 57.447823 89.092896 C 66.971428 79.826797 76.518723 70.585037 86.273972 61.120781 C 89.141968 64.962296 91.720734 68.415054 94.298012 71.868919 C 96.841263 75.277161 99.382996 78.686523 101.945251 82.122025 C 105.347542 79.564774 108.259071 77.376389 111.402191 75.013939 C 115.962044 80.743172 120.333015 86.235085 125.643211 92.907089 C 125.643211 89.888092 125.643211 88.450043 125.644264 86.12606 z" stroke-linecap="round" />
</g>
<g transform="matrix(2.06 0 0 2.06 294.38 422.11)" id="cMyM6kjqmL-vz9QCYYw9g"  >
<path style="stroke: none; stroke-width: 1; stroke-dasharray: none; stroke-linecap: butt; stroke-dashoffset: 0; stroke-linejoin: miter; stroke-miterlimit: 4; fill: rgb(1,2,3); fill-rule: nonzero; opacity: 1;" vector-effect="non-scaling-stroke"  transform=" translate(-98.35, -208.79)" d="M 94.625839 211.618576 C 107.073608 201.606583 119.249504 191.824081 132.008636 181.572983 C 132.202164 183.454193 132.431625 184.662567 132.43425 185.871429 C 132.455551 195.690033 132.597046 205.512268 132.38443 215.326508 C 132.125977 227.256454 123.151688 235.926102 111.243164 235.972839 C 97.097672 236.028366 82.951782 235.985336 68.806068 235.985031 C 67.712555 235.985001 66.619041 235.985031 64.196342 235.985031 C 74.993019 227.343796 84.673485 219.595932 94.625839 211.618576 z" stroke-linecap="round" />
</g>
</svg>